<?xml version="1.0" standalone="no"?>
<!DOCTYPE svg PUBLIC "-//W3C//DTD SVG 20010904//EN"
 "http://www.w3.org/TR/2001/REC-SVG-20010904/DTD/svg10.dtd">
<svg version="1.0" xmlns="http://www.w3.org/2000/svg"
 width="430.000000pt" height="491.000000pt" viewBox="0 0 430.000000 491.000000"
 preserveAspectRatio="xMidYMid meet">

<g transform="translate(0.000000,491.000000) scale(0.100000,-0.100000)"
fill="#000000" stroke="none">
<path d="M2115 4764 c-16 -9 -70 -36 -120 -62 -49 -25 -191 -98 -315 -162
-124 -65 -389 -202 -590 -305 -201 -103 -447 -232 -548 -286 l-182 -99 -81 0
c-92 0 -119 -10 -119 -45 0 -34 27 -45 109 -45 l71 0 0 -879 0 -878 -41 -27
c-49 -33 -70 -77 -58 -119 18 -63 75 -96 132 -78 46 16 68 41 74 90 5 34 1 48
-21 80 -21 30 -28 54 -32 107 -8 104 4 111 70 45 l55 -55 3 -135 c3 -132 4
-136 26 -139 22 -3 22 -2 22 102 0 58 4 106 8 106 4 0 31 -24 60 -53 l52 -53
0 -103 0 -103 -35 -41 c-25 -29 -35 -50 -35 -74 0 -66 63 -121 123 -109 96 19
116 144 31 197 -34 20 -34 21 -34 95 0 41 4 74 8 74 4 0 31 -24 60 -53 l52
-53 0 -124 c0 -133 6 -155 35 -144 16 7 17 17 12 106 -4 71 -3 98 5 98 7 0 36
-25 65 -55 l53 -54 -7 -128 c-6 -127 -6 -128 -39 -166 -67 -74 -26 -176 71
-177 49 0 77 18 99 64 20 43 10 75 -40 127 -34 35 -35 38 -37 122 -1 47 2 89
6 93 4 4 32 -17 62 -46 l55 -54 0 -133 c0 -111 3 -135 15 -140 9 -3 18 -3 22
0 3 3 7 45 10 94 2 48 7 94 9 102 3 10 22 -2 59 -39 l55 -54 0 -119 0 -120
-45 -41 c-37 -35 -45 -49 -45 -78 0 -41 28 -81 71 -104 24 -12 37 -13 63 -4
48 16 68 43 74 100 4 46 2 52 -32 86 l-37 37 3 91 3 91 58 -54 57 -54 0 -134
c0 -113 2 -135 16 -140 26 -10 34 16 34 115 0 50 4 92 8 92 11 0 88 -81 101
-107 6 -12 11 -68 11 -125 l0 -103 -39 -25 c-105 -64 -68 -200 54 -200 88 0
127 108 65 180 -27 33 -29 41 -30 117 0 45 4 84 8 87 12 7 89 -74 101 -107 6
-16 11 -80 11 -143 l0 -114 25 0 25 0 0 100 c0 55 4 100 8 100 11 0 88 -81
101 -107 12 -24 14 -78 5 -135 -5 -28 -13 -39 -36 -49 -44 -18 -68 -55 -68
-104 0 -36 5 -48 31 -69 58 -49 117 -43 163 17 l24 30 37 -42 c48 -53 88 -56
140 -10 31 27 35 37 35 79 0 41 -4 52 -30 73 -16 14 -39 28 -50 32 -18 6 -20
15 -20 94 l0 87 53 52 c29 29 56 52 60 52 4 0 7 -45 7 -100 l0 -100 25 0 25 0
0 133 0 133 53 52 c29 29 56 52 60 52 4 0 7 -39 7 -86 0 -85 -1 -87 -35 -125
-48 -53 -48 -98 -1 -145 44 -44 99 -47 140 -9 59 55 54 121 -15 176 l-39 31 0
112 0 112 53 52 c29 29 56 52 60 52 4 0 7 -45 7 -100 0 -82 3 -102 15 -107 9
-3 19 -2 23 2 4 3 7 65 7 135 l0 129 54 55 c30 30 58 53 63 50 4 -3 8 -41 8
-86 0 -78 -1 -82 -35 -119 -41 -46 -51 -79 -35 -118 40 -97 152 -101 196 -7
22 45 13 78 -35 125 l-38 37 -6 115 -5 114 56 57 c39 40 58 54 64 45 4 -6 8
-54 8 -104 0 -85 2 -93 19 -93 17 0 20 12 26 145 l7 145 50 45 c28 25 54 45
59 45 5 0 9 -42 9 -94 0 -94 0 -95 -30 -116 -68 -48 -76 -126 -19 -174 37 -31
82 -34 126 -6 64 39 63 133 -2 176 -25 16 -25 18 -25 154 l0 138 54 46 c29 25
57 46 61 46 4 0 5 -38 2 -86 -6 -105 -1 -126 27 -122 20 3 21 9 24 138 l3 135
51 52 c29 29 56 53 61 53 17 0 2 -165 -16 -194 -9 -14 -17 -45 -17 -69 0 -34
6 -49 28 -69 54 -52 118 -46 160 15 32 48 29 87 -10 123 -18 17 -45 36 -60 42
-28 12 -28 12 -28 115 l0 103 52 52 c34 34 54 48 59 40 4 -6 5 -53 2 -105 l-6
-93 32 0 33 0 -3 135 -3 134 53 58 c53 58 53 58 63 33 16 -42 5 -146 -20 -179
-31 -42 -30 -109 2 -144 44 -48 108 -48 152 0 53 57 36 136 -36 173 l-40 20 0
723 c0 397 3 793 7 880 l6 157 73 0 c73 0 104 13 104 44 0 33 -35 46 -122 46
l-84 0 -110 61 c-60 33 -183 99 -274 146 -91 47 -223 116 -295 153 -71 37
-220 114 -330 170 -110 56 -254 131 -320 165 -371 193 -454 235 -466 235 -8 0
-27 -7 -44 -16z m271 -158 c686 -355 876 -453 1134 -584 157 -80 294 -151 305
-159 16 -11 -250 -13 -1665 -13 -1028 0 -1680 4 -1674 9 5 5 133 72 284 148
151 77 410 210 575 296 165 86 413 214 550 286 138 71 255 130 261 130 6 1
109 -50 230 -113z m-1868 -1548 c1 -390 -1 -708 -5 -708 -4 0 -31 23 -60 52
l-53 52 0 651 c0 359 3 655 7 659 4 4 30 6 58 4 l50 -3 3 -707z m176 695 c4
-9 2 -21 -3 -26 -15 -15 -46 -3 -49 21 -3 18 1 22 21 22 14 0 28 -7 31 -17z
m122 -27 c30 -29 44 -53 45 -72 2 -39 -2 -98 -7 -103 -10 -10 -114 104 -119
131 -9 39 3 88 22 88 9 0 35 -20 59 -44z m199 24 c18 -15 21 -135 4 -146 -14
-8 -119 100 -119 124 0 31 22 44 63 39 21 -3 44 -11 52 -17z m179 4 c10 -27 7
-92 -6 -100 -14 -9 -112 92 -103 106 11 17 102 12 109 -6z m341 -49 c9 -82 2
-381 -9 -392 -4 -4 -30 16 -57 45 l-49 53 0 174 c0 194 -6 180 77 184 l31 1 7
-65z m387 -98 c80 -84 167 -170 193 -191 l46 -38 193 191 193 192 71 6 c49 4
72 2 72 -5 0 -6 -57 -67 -127 -136 -71 -68 -189 -185 -263 -260 -74 -75 -138
-136 -142 -136 -15 0 -528 514 -528 529 0 11 14 13 73 8 l72 -6 147 -154z
m-35 148 c3 -9 2 -19 -1 -23 -8 -8 -38 10 -44 26 -6 18 38 14 45 -3z m501 -32
c3 -40 -1 -47 -49 -98 -28 -30 -56 -55 -60 -55 -5 0 -9 42 -9 94 l0 95 33 4
c74 10 82 6 85 -40z m82 32 c0 -16 -27 -32 -37 -22 -3 4 -3 13 0 22 8 20 37
20 37 0z m760 1 c0 -18 -43 -70 -81 -97 l-29 -20 0 65 0 66 55 0 c41 0 55 -4
55 -14z m179 0 c10 -11 9 -21 -3 -43 -19 -38 -104 -119 -113 -109 -4 4 -8 37
-8 72 0 53 4 68 19 80 26 18 90 18 105 0z m172 -19 c12 -43 -7 -87 -58 -139
-26 -26 -51 -48 -55 -48 -4 0 -8 33 -8 74 0 73 0 74 41 110 46 42 69 43 80 3z
m93 24 c9 -14 -29 -55 -42 -47 -13 8 -16 39 -5 49 9 10 41 9 47 -2z m241 -648
l7 -657 -58 -55 -59 -56 -3 700 c-1 385 0 706 3 713 3 7 23 12 53 12 l50 0 7
-657z m-2546 530 c-1 -65 -4 -131 -8 -147 l-6 -30 -52 60 -53 59 0 88 0 87 60
0 60 0 -1 -117z m679 42 c2 -38 0 -80 -3 -93 l-6 -23 -32 27 c-62 52 -104 134
-80 158 4 4 32 6 63 4 l55 -3 3 -70z m172 -53 l0 -128 -30 -29 -30 -29 -30 29
-30 29 0 128 0 128 60 0 60 0 0 -128z m674 51 c3 -42 6 -119 6 -172 l0 -97
-55 -54 c-30 -29 -58 -51 -61 -47 -4 4 -9 106 -12 227 l-5 220 60 0 60 0 7
-77z m174 -12 l3 -84 -53 -54 c-29 -29 -56 -53 -60 -53 -4 0 -8 63 -8 140 l0
141 58 -3 57 -3 3 -84z m-2435 25 l47 -55 -2 -730 -3 -730 -52 46 -53 45 0
739 c0 406 3 739 8 739 4 0 28 -25 55 -54z m3107 -684 l0 -738 -48 -47 c-27
-26 -51 -44 -55 -41 -4 4 -7 331 -7 727 l0 719 48 59 c26 32 50 59 55 59 4 0
7 -332 7 -738z m-1010 471 l0 -238 -51 -52 c-28 -29 -55 -50 -60 -47 -5 3 -9
105 -9 227 l0 222 52 63 c29 34 56 62 60 62 4 0 8 -107 8 -237z m-1077 177
c29 -32 46 -62 51 -87 9 -59 7 -433 -3 -433 -5 0 -32 21 -60 46 l-51 46 0 239
c0 136 4 239 9 239 5 0 29 -22 54 -50z m-506 -42 c51 -51 53 -54 53 -108 0
-88 -12 -94 -69 -33 -34 36 -50 63 -54 90 -11 61 -8 103 5 103 7 0 36 -23 65
-52z m2093 -16 l0 -68 -57 -58 -58 -58 -3 79 -3 78 50 48 c27 26 54 47 60 47
7 0 11 -26 11 -68z m-2261 -36 c50 -53 51 -56 51 -115 0 -33 -4 -62 -9 -65 -5
-3 -31 18 -58 47 -44 47 -51 60 -57 110 -12 94 1 98 73 23z m2431 -14 l0 -68
-55 -54 c-30 -29 -56 -52 -59 -49 -6 6 -8 37 -7 87 1 38 8 50 52 98 29 30 56
54 60 54 5 0 9 -31 9 -68z m-2574 -64 c43 -46 181 -187 306 -313 l228 -231 -1
-529 c-1 -292 -4 -617 -8 -723 l-6 -193 -307 308 -308 308 0 728 c0 417 4 727
9 727 5 0 44 -37 87 -82z m2740 -640 l-5 -723 -78 -88 c-43 -49 -181 -190
-308 -315 l-230 -227 -3 730 -2 730 308 308 c169 169 311 307 316 307 4 0 5
-325 2 -722z m-1742 625 l46 -55 -1 -187 c0 -102 -3 -203 -7 -225 l-7 -39 -52
48 -53 47 0 239 c0 271 -2 265 74 172z m726 -165 l0 -232 -52 -53 c-29 -29
-56 -53 -60 -53 -4 0 -8 104 -8 232 l0 232 52 53 c29 29 56 53 60 53 4 0 8
-104 8 -232z m-1243 140 l53 -52 0 -68 c0 -86 -11 -87 -79 -11 -49 54 -51 60
-51 113 0 87 6 88 77 18z m1753 -21 c0 -61 -1 -62 -52 -114 -29 -29 -58 -53
-65 -53 -9 0 -13 18 -13 63 0 62 0 62 55 120 31 32 60 55 65 52 6 -3 10 -34
10 -68z m-1921 -31 c48 -52 51 -58 51 -108 0 -82 -9 -85 -68 -25 -50 51 -53
56 -59 120 -8 85 5 87 76 13z m2091 -13 l0 -67 -52 -53 c-29 -29 -56 -53 -60
-53 -4 0 -8 30 -8 67 l0 67 52 53 c29 29 56 53 60 53 4 0 8 -30 8 -67z m-1246
-64 l46 -51 0 -234 c0 -129 -2 -234 -5 -234 -3 0 -28 21 -55 46 l-50 47 0 238
c0 137 4 239 9 239 5 0 30 -23 55 -51z m395 -249 l1 -164 -52 -53 c-29 -29
-56 -53 -60 -53 -4 0 -8 104 -8 232 l0 232 53 54 52 53 6 -68 c4 -37 7 -142 8
-233z m-902 208 l53 -52 0 -68 c0 -47 -4 -68 -12 -68 -7 0 -34 21 -60 47 l-48
47 0 73 c0 40 3 73 7 73 4 0 31 -23 60 -52z m1413 -20 c0 -60 0 -60 -60 -121
l-60 -62 0 77 0 77 50 51 c27 28 54 48 60 45 5 -3 10 -33 10 -67z m-1581 -32
c50 -53 51 -57 51 -114 0 -32 -3 -62 -7 -66 -4 -3 -33 19 -65 51 l-58 57 0 63
c0 79 10 81 79 9z m1751 -2 c0 -25 -6 -59 -14 -77 -17 -40 -90 -112 -105 -103
-6 4 -11 33 -11 64 0 56 2 58 56 115 30 31 59 55 65 52 5 -4 9 -26 9 -51z
m-906 -54 c8 0 19 8 25 17 5 10 13 14 18 10 4 -5 9 -113 11 -241 l4 -232 -35
-26 -34 -27 -27 28 -26 27 0 238 0 238 25 -16 c13 -9 31 -16 39 -16z m-506
-65 c53 -57 73 -115 57 -164 -10 -33 -30 -25 -84 36 -46 51 -51 62 -51 104 0
51 7 79 20 79 4 0 31 -25 58 -55z m1072 -12 l0 -67 -52 -53 c-29 -29 -58 -53
-65 -53 -9 0 -13 18 -13 61 0 60 1 61 57 120 31 32 60 59 65 59 4 0 8 -30 8
-67z m-1243 -35 l53 -52 0 -68 c0 -37 -4 -69 -9 -72 -5 -4 -32 20 -60 51 -50
57 -51 59 -51 126 0 37 3 67 7 67 4 0 31 -23 60 -52z m1413 -15 l0 -67 -52
-53 c-72 -73 -83 -71 -75 14 6 64 9 69 59 120 29 29 56 53 60 53 4 0 8 -30 8
-67z m-1089 -90 c22 -20 47 -49 55 -64 18 -36 19 -139 1 -139 -15 0 -90 75
-106 107 -18 35 -14 133 6 133 1 0 21 -17 44 -37z m753 15 c3 -13 6 -41 6 -63
0 -36 -7 -48 -55 -99 -30 -32 -61 -56 -68 -53 -8 3 -11 25 -10 69 2 65 3 66
55 117 29 28 56 51 59 51 4 0 9 -10 13 -22z m113 -216 c-31 -31 -60 -52 -66
-48 -6 4 -11 32 -11 62 0 55 1 57 63 121 l62 65 3 -73 3 -73 -54 -54z m-1020
136 c42 -44 52 -61 56 -99 4 -25 3 -59 -2 -75 l-8 -29 -61 65 c-58 60 -62 68
-62 112 0 48 7 78 19 78 4 0 30 -24 58 -52z m-175 -45 l48 -47 0 -735 0 -735
-55 54 -55 54 0 728 c0 400 3 728 7 728 4 0 29 -21 55 -47z m1353 -1473 l-55
-55 0 735 0 734 53 54 52 53 3 -733 2 -733 -55 -55z m-838 1398 c53 -52 53
-53 53 -115 0 -34 -4 -65 -10 -68 -5 -3 -32 15 -60 41 l-50 47 0 73 c0 41 3
74 7 74 4 0 31 -23 60 -52z m393 -16 l0 -68 -60 -59 -60 -59 0 74 0 74 52 53
c29 29 56 53 60 53 4 0 8 -31 8 -68z m-563 -34 c52 -52 52 -54 55 -120 1 -37
-1 -70 -4 -74 -10 -10 -94 73 -112 110 -23 50 -21 136 4 136 3 0 29 -24 57
-52z m737 -9 c7 -60 7 -61 -30 -102 -21 -23 -49 -51 -62 -61 -31 -25 -42 -10
-42 59 0 47 3 53 56 108 31 31 60 57 64 57 4 0 11 -27 14 -61z m-904 -46 l52
-56 -4 -718 c-2 -394 -7 -721 -11 -726 -5 -4 -31 15 -58 44 l-49 52 0 730 c0
426 4 731 9 731 5 0 32 -26 61 -57z m1069 -718 l1 -680 -50 -53 c-28 -28 -56
-52 -63 -52 -9 0 -11 159 -9 712 1 392 4 722 7 733 2 11 26 42 52 70 l48 50 7
-50 c3 -28 7 -356 7 -730z m-594 685 c17 -19 18 -19 43 1 36 28 45 12 40 -65
-9 -140 -108 -140 -125 1 -9 79 6 102 42 63z m-125 -97 c41 -46 42 -50 38
-105 -2 -32 -8 -61 -12 -65 -4 -5 -30 16 -56 46 -49 56 -62 95 -52 163 4 23 7
26 22 18 10 -5 37 -31 60 -57z m380 0 l0 -67 -52 -53 c-29 -29 -56 -53 -60
-53 -4 0 -8 30 -8 67 l0 67 52 53 c29 29 56 53 60 53 4 0 8 -30 8 -67z m170
-723 l0 -715 -181 -183 c-100 -100 -185 -179 -190 -176 -10 6 -11 363 -1 438
7 48 8 49 52 60 160 41 276 224 240 378 -18 74 -44 122 -93 170 -47 46 -128
88 -169 88 l-28 0 0 94 c0 51 -3 121 -6 155 l-7 62 184 184 c124 126 186 181
191 172 4 -6 8 -334 8 -727z m-586 536 l156 -164 0 -156 0 -156 -23 0 c-78 0
-187 -75 -237 -164 -28 -47 -30 -58 -30 -154 0 -113 7 -136 67 -209 40 -50 99
-87 172 -109 l51 -15 0 -252 -1 -252 -184 190 -184 190 -1 616 c0 339 3 664 6
722 l7 106 22 -15 c12 -8 93 -88 179 -178z m156 69 c17 -20 47 -19 59 3 18 30
32 -6 28 -71 -4 -69 -30 -103 -70 -93 -27 6 -42 37 -51 103 -9 64 7 91 34 58z
m-1661 -99 c51 -55 51 -55 51 -120 0 -36 -4 -66 -9 -66 -5 0 -33 22 -62 49
l-53 48 -4 72 c-5 89 6 92 77 17z m3451 -26 c0 -54 -2 -57 -54 -109 -30 -29
-59 -50 -65 -47 -6 4 -11 33 -11 64 0 56 1 58 56 115 65 67 74 64 74 -23z
m-3283 -142 l53 -52 0 -68 c0 -47 -4 -68 -12 -68 -7 0 -34 21 -60 47 l-48 47
0 73 c0 40 3 73 7 73 4 0 31 -23 60 -52z m3112 -43 c1 -35 -5 -45 -51 -92 -29
-29 -56 -53 -60 -53 -4 0 -8 30 -8 68 0 67 0 67 52 122 l52 55 7 -30 c4 -16 7
-48 8 -70z m-2952 -117 c22 -24 46 -53 52 -65 13 -26 15 -133 2 -133 -5 0 -31
20 -59 45 -46 41 -50 49 -56 103 -6 57 -1 92 13 92 4 0 25 -19 48 -42z m2783
-24 c0 -65 0 -65 -51 -120 -29 -30 -56 -54 -60 -54 -5 0 -9 30 -9 67 l0 67 52
53 c29 29 56 53 60 53 4 0 8 -30 8 -66z m-3199 -43 c20 -16 22 -23 14 -46 -6
-15 -19 -34 -31 -42 -18 -12 -24 -11 -47 8 -32 24 -34 52 -7 79 25 25 41 25
71 1z m3628 -7 c27 -34 26 -40 -4 -69 -29 -30 -39 -31 -65 -5 -37 37 -17 99
32 100 9 0 26 -12 37 -26z m-594 -87 c10 -54 -11 -111 -60 -161 -24 -25 -49
-46 -55 -46 -6 0 -10 27 -10 67 l0 67 52 53 c29 29 56 53 60 53 4 0 10 -15 13
-33z m-2443 -14 c20 -21 41 -48 47 -60 14 -27 15 -120 1 -128 -5 -3 -31 14
-56 38 -43 40 -48 49 -55 106 -13 94 4 105 63 44z m1166 -7 c8 -39 -8 -65 -51
-84 -155 -69 -156 -262 -1 -343 42 -21 49 -30 52 -58 5 -54 -10 -58 -80 -23
-116 57 -168 134 -168 250 0 87 15 126 71 187 42 46 80 71 129 86 33 10 44 6
48 -15z m148 -16 c147 -84 187 -255 93 -396 -31 -46 -133 -114 -170 -114 -26
0 -29 3 -29 33 0 41 6 49 58 72 80 35 125 127 103 208 -17 58 -48 95 -107 127
-44 23 -49 29 -52 63 -3 35 -1 37 25 37 15 0 51 -13 79 -30z m-1139 -152 c53
-52 53 -53 53 -115 0 -34 -5 -65 -10 -68 -6 -3 -32 16 -59 44 -41 42 -49 57
-54 99 -6 49 0 92 11 92 4 0 30 -23 59 -52z m983 -83 c0 -150 -3 -156 -59
-109 -66 55 -64 153 4 213 20 17 40 31 45 31 6 0 10 -55 10 -135z m116 99 c43
-35 44 -37 44 -96 0 -57 -2 -63 -40 -100 -22 -22 -45 -38 -52 -36 -22 8 -23
268 -1 268 3 0 26 -16 49 -36z m994 -31 l0 -67 -52 -53 c-29 -29 -56 -53 -60
-53 -4 0 -8 30 -8 67 l0 67 52 53 c29 29 56 53 60 53 4 0 8 -30 8 -67z m-2468
-40 c22 -20 23 -41 1 -65 -18 -20 -63 -24 -81 -6 -15 15 -15 61 0 76 17 17 58
15 80 -5z m2906 5 c7 -7 12 -24 12 -38 0 -33 -17 -50 -50 -50 -43 0 -62 37
-44 84 7 19 64 22 82 4z m-2350 -132 c40 -44 42 -48 42 -111 0 -39 -4 -65 -11
-65 -5 0 -35 23 -65 51 l-54 52 0 62 c0 34 3 65 6 68 11 10 37 -9 82 -57z
m1742 -2 l0 -66 -53 -55 c-32 -33 -59 -53 -65 -49 -7 4 -12 32 -12 64 0 55 1
58 57 114 32 32 61 58 65 58 4 0 8 -30 8 -66z m-1583 -156 l53 -52 0 -68 c0
-41 -4 -68 -10 -68 -6 0 -33 21 -60 46 l-50 47 0 73 c0 41 3 74 7 74 4 0 31
-23 60 -52z m1413 -21 l0 -63 -60 -59 -60 -59 0 49 c0 28 -3 59 -6 70 -3 14 9
35 45 73 68 71 81 69 81 -11z m-1800 -76 c15 -30 12 -56 -10 -76 -25 -23 -62
-14 -80 19 -11 22 -11 29 4 51 21 31 70 35 86 6z m2199 -7 c24 -30 15 -58 -24
-76 -19 -9 -30 -7 -50 6 -29 19 -32 51 -8 78 23 26 58 22 82 -8z m-1636 -73
c54 -56 57 -62 56 -108 -1 -89 -7 -91 -77 -28 -61 56 -62 57 -62 110 0 55 7
85 20 85 4 0 32 -27 63 -59z m1067 -10 l0 -70 -51 -50 c-69 -68 -79 -67 -79
11 l0 62 57 58 c32 32 61 58 65 58 4 0 8 -31 8 -69z m-903 -158 c52 -56 53
-57 53 -120 0 -35 -4 -63 -10 -63 -19 0 -93 75 -107 107 -17 41 -18 133 -1
133 7 0 36 -26 65 -57z m737 -5 l7 -61 -59 -60 c-73 -73 -87 -70 -78 17 6 56
10 64 58 113 29 29 55 53 59 53 3 0 10 -28 13 -62z m405 -82 c19 -23 9 -59
-20 -75 -24 -13 -29 -13 -53 2 -34 23 -34 59 0 86 27 22 47 18 73 -13z m-1545
8 c32 -32 10 -94 -34 -94 -41 0 -68 68 -38 98 17 17 54 15 72 -4z m602 -124
c20 -23 24 -39 24 -89 0 -75 -10 -77 -72 -13 -41 42 -47 53 -49 97 -1 28 -2
61 -1 74 2 23 2 23 38 -9 21 -18 48 -45 60 -60z m364 23 l0 -67 -52 -53 c-29
-29 -56 -53 -60 -53 -4 0 -8 30 -8 67 l0 67 52 53 c29 29 56 53 60 53 4 0 8
-30 8 -67z m-260 -118 c7 -8 18 -15 25 -15 7 0 18 7 25 15 7 8 19 15 27 15 13
0 15 -13 11 -70 -3 -62 -7 -74 -34 -100 l-30 -30 -29 30 c-22 23 -29 41 -33
84 -6 79 8 107 38 71z m-369 -119 c27 -58 -27 -111 -71 -71 -22 20 -26 65 -8
83 22 22 67 15 79 -12z m870 14 c25 -14 25 -62 -1 -85 -45 -41 -110 18 -76 70
17 26 45 32 77 15z m-496 -120 c17 -19 18 -19 43 1 31 24 42 13 42 -42 0 -36
-37 -120 -56 -126 -18 -6 -62 70 -69 119 -10 67 6 86 40 48z m-50 -165 c14
-13 25 -29 25 -35 0 -13 -45 -60 -58 -60 -17 0 -62 41 -62 58 0 20 39 62 57
62 8 0 25 -11 38 -25z m215 5 c38 -38 20 -90 -31 -90 -28 0 -59 31 -59 57 0
18 37 53 55 53 8 0 24 -9 35 -20z"/>
</g>
</svg>
